<svg xmlns="http://www.w3.org/2000/svg">
	<symbol id="icon-1" viewBox="0 0 69 69" fill="none">
		<circle cx="34.5" cy="34.5" r="34.5" fill="#F1F5FF"/>
		<path d="M27 31.8727V43H31.4211L34 41L36.5789 43H41V31.8727L34 26L27 31.8727Z" stroke="#4074F8" stroke-width="2.5"/>
	</symbol>
	
	<symbol id="icon-2" viewBox="0 0 69 69" fill="none">
		<circle cx="34.5" cy="34.5" r="34.5" fill="#F1F5FF"/>
		<path d="M40.7544 42H33.0877H30.1994H23V31.9496V28H33.0877L34.7018 31.1613H40.7544V32.9677M40.7544 42L46 32.9677H40.7544M40.7544 42V32.9677" stroke="#4074F8" stroke-width="2.5"/>
	</symbol>

	<symbol id="icon-3" viewBox="0 0 69 69" fill="none">
		<circle cx="34.5" cy="34.5" r="34.5" fill="#F1F5FF"/>
		<path d="M26 27V31.9496V38.5H28.2811L29.5 42L33 38.5H37.7018H43.7544V32.9677V27H41H36.5H26Z" stroke="#4074F8" stroke-width="2.5"/>
	</symbol>

	<symbol id="icon-4" viewBox="0 0 69 69" fill="none">
		<circle cx="34.5" cy="34.5" r="34.5" fill="#F1F5FF"/>
		<path d="M26 36.9677V42.5H28.2811H33H37.7018H43.2544V36.9677M30.7544 30L34.7544 27M38.7544 30L34.7544 27M34.7544 27V37.5" stroke="#4074F8" stroke-width="2.5"/>
	</symbol>
</svg>